<svg width="240" height="240" viewBox="0 0 240 240" fill="none" xmlns="http://www.w3.org/2000/svg"><path d="M236.396 149.029c-16.027 64.286-81.138 103.409-145.432 87.378-64.267-16.026-103.39-81.142-87.357-145.423C19.627 26.69 84.74-12.436 149.013 3.59c64.289 16.027 103.41 81.15 87.381 145.439l.002-.001z" fill="#F7931A"/><path d="M172.915 102.903c2.388-15.97-9.77-24.554-26.395-30.28l5.393-21.632-13.168-3.281-5.25 21.062c-3.462-.863-7.017-1.677-10.55-2.483l5.288-21.202-13.16-3.28-5.396 21.624a435.652 435.652 0 01-8.408-1.976l.015-.068-18.159-4.535-3.503 14.065s9.77 2.24 9.564 2.377c5.332 1.33 6.296 4.86 6.136 7.659l-6.143 24.643c.367.094.843.229 1.369.44-.44-.109-.907-.228-1.392-.345l-8.611 34.523c-.652 1.62-2.306 4.051-6.034 3.128.132.191-9.57-2.388-9.57-2.388l-6.538 15.073 17.136 4.272c3.188.799 6.312 1.635 9.388 2.422l-5.449 21.88 13.153 3.281 5.396-21.648c3.593.976 7.08 1.876 10.494 2.724l-5.378 21.545 13.168 3.282 5.449-21.839c22.454 4.249 39.338 2.536 46.445-17.774 5.726-16.352-.285-25.783-12.099-31.934 8.605-1.984 15.085-7.643 16.813-19.333l-.004-.003v.001zm-30.086 42.188c-4.07 16.352-31.601 7.513-40.527 5.296l7.231-28.987c8.925 2.228 37.549 6.638 33.296 23.691zm4.072-42.425c-3.712 14.874-26.627 7.317-34.06 5.464l6.556-26.29c7.433 1.853 31.371 5.312 27.505 20.826h-.001z" fill="#fff"/></svg>