<svg width="256" height="256" viewBox="0 0 256 256" fill="none" xmlns="http://www.w3.org/2000/svg">
<g clip-path="url(#clip0_1_9)">
<path d="M217.905 86.5046C216.821 88.3969 207.517 93.8259 203 96.3039L204.355 97.6555L211.808 96.3039C215.986 99.2324 224.545 105.089 225.358 105.089C226.171 105.089 234.956 112.298 239.247 115.902C242.521 120.971 250.087 131.514 254.152 133.136C258.217 134.758 268.492 154.086 273.122 163.547L280.575 133.136C281.93 105.315 284.165 49.2673 282.268 47.6454C280.371 46.0234 261.379 53.2771 252.119 57.1067C243.199 62.4006 225.154 73.1911 224.341 74.0021C223.325 75.0158 219.26 84.1392 217.905 86.5046Z" fill="#FF261C"/>
<path d="M258.556 70.2851C255.846 70.5554 248.619 74.2274 245.344 76.0295C245.615 76.5702 246.586 76.2548 247.038 76.0295L253.474 73.6642L256.523 72.3126L263.976 70.2851C265.105 69.8346 267.024 68.8659 265.669 68.5956C263.976 68.2577 261.943 69.9472 258.556 70.2851Z" fill="white"/>
<path d="M257.659 123.379C256.398 120.926 249.202 116.744 245.737 114.459C245.116 114.965 245.856 115.743 246.303 116.069L251.565 121.102L254.362 123.379L262.323 132.672C263.293 133.539 265.209 134.919 265.112 133.506C264.99 131.74 259.236 126.445 257.659 123.379Z" fill="white"/>
<path d="M249.581 113.049C248.647 111.827 244.285 110.238 242.159 109.325C241.868 109.664 242.351 110.018 242.628 110.153L246.012 112.397L247.771 113.372L250.752 115.316C251.369 115.696 252.557 116.265 252.364 115.499C252.123 114.542 250.748 114.576 249.581 113.049Z" fill="white"/>
<path d="M232.367 112.622C230.526 110.621 223.248 107.052 219.839 105.517C219.567 106.058 220.402 106.644 220.854 106.87L226.61 110.591L229.522 112.215L235.616 116.95C236.655 117.581 238.583 118.533 237.987 117.289C237.243 115.734 234.669 115.124 232.367 112.622Z" fill="#FF261C"/>
<path d="M221.293 115.227L211.13 111.848H205.033L210.114 118.606L224.341 134.149C225.922 141.245 229.084 156.248 229.084 159.492C229.084 163.547 239.585 170.981 239.924 174.36C240.195 177.064 247.715 180.555 249.748 180.105L272.106 197L276.848 188.552L270.412 162.534L246.36 134.149L221.293 115.227Z" fill="#FF261C"/>
<path d="M210.453 128.743C210.995 127.662 209.098 121.985 208.081 119.282L211.13 122.661L211.808 128.743L211.13 132.46C210.678 131.671 209.911 129.824 210.453 128.743Z" fill="#FF261C"/>
<path d="M212.146 101.71C211.604 101.17 206.049 100.133 203.339 99.6829V100.359C203.903 100.584 205.507 101.17 207.404 101.71C209.301 102.251 210.904 103.062 211.469 103.4C212.824 103.85 215.534 104.616 215.534 104.076C215.534 103.4 212.824 102.386 212.146 101.71Z" fill="#FF261C"/>
<path d="M256.354 140.114C256.164 139.373 251.916 135.655 249.815 133.888L249.47 134.47C249.84 134.951 250.92 136.27 252.275 137.701C253.63 139.131 254.594 140.645 254.907 141.223C255.842 142.3 257.781 144.338 258.057 143.873C258.403 143.291 256.591 141.04 256.354 140.114Z" fill="#FF261C"/>
<path d="M256.523 176.05C255.546 174.399 243.772 166.507 237.217 163.209L236.716 164.697C237.985 165.673 241.627 168.326 246.049 171.13C250.471 173.935 253.946 177.084 255.131 178.308C258.242 180.452 263.237 186.701 263.637 185.511C264.137 184.024 257.745 178.114 256.523 176.05Z" fill="white"/>
<path d="M221.953 67.0711C221.253 67.3811 218.285 72.1792 216.889 74.5395L217.521 74.7826C217.935 74.3381 219.059 73.0564 220.247 71.4852C221.436 69.914 222.771 68.7133 223.29 68.3094C224.199 67.2103 225.89 64.9634 225.384 64.769C224.752 64.5259 222.829 66.6836 221.953 67.0711Z" fill="#FF261C"/>
<path d="M217.644 101.382C217.241 100.894 212.453 99.145 210.11 98.3314L210.01 98.8193C210.479 99.0837 211.819 99.7955 213.426 100.528C215.034 101.26 216.34 102.134 216.793 102.48C217.931 103.05 220.229 104.091 220.308 103.701C220.408 103.213 218.147 101.992 217.644 101.382Z" fill="#FF261C"/>
<path d="M225.013 121.599C224.389 120.386 220.83 118.317 219.116 117.187C218.809 117.437 219.174 117.822 219.396 117.984L221.999 120.473L223.382 121.599L227.32 126.196C227.8 126.625 228.747 127.307 228.699 126.608C228.639 125.735 225.793 123.116 225.013 121.599Z" fill="white"/>
<path d="M218.244 139.556L213.84 128.743C216.324 130.32 221.293 133.812 221.293 135.163V156.113L218.244 160.506V139.556Z" fill="#FFD62C"/>
<path d="M231.455 76.0295L223.325 85.4909H226.374L233.827 77.0432L248.393 68.9335L251.442 65.2165L231.455 76.0295Z" fill="#FFD62C"/>
<path d="M242.295 130.77L235.859 125.026L233.827 121.309L241.618 126.377C243.538 128.292 246.699 130.703 246.699 131.784C246.699 132.865 250.764 136.627 252.119 138.88L254.491 146.314L256.523 161.182C254.829 160.957 253.474 151.991 252.119 151.72C250.764 151.45 248.845 145.751 248.054 142.935L242.295 130.77Z" fill="#FFD62C"/>
<path d="M259.233 107.455L255.846 102.724L262.621 107.455L266.347 116.578C265.782 118.38 264.653 121.714 264.653 120.633C264.653 119.552 261.04 111.397 259.233 107.455Z" fill="#FFD62C"/>
<path d="M240.602 46.2937L229.423 60.8237V63.189C230.891 62.4006 234.233 60.8237 235.859 60.8237C237.892 60.8237 236.537 57.4446 240.602 56.093C243.854 55.0117 251.893 52.2634 255.507 51.0244L271.089 46.2937V38.5219C268.379 38.7471 262.011 39.4004 258.217 40.2114C254.423 41.0224 245.683 43.2526 240.602 46.2937Z" fill="#FF261C"/>
<path d="M253.932 43.1661C252.16 42.8688 246.197 45.4471 243.437 46.7734C243.376 47.4516 244.102 47.3085 244.473 47.1522L249.404 45.8897L251.837 45.0275L253.932 43.1661Z" fill="white"/>
<path d="M243.816 35.1938C240.156 37.0166 231.977 46.0201 228.344 50.294C229.014 50.9086 230.209 49.9487 230.722 49.3919L238.491 42.6436L242.048 39.1224L251.425 32.3071C252.768 31.0733 254.945 28.6911 252.898 29.0333C250.339 29.461 248.39 32.9153 243.816 35.1938Z" fill="#FF261C"/>
<path d="M41.194 124.496C41.3705 122.453 47.1382 114.155 50 110.261L48.3176 109.64L42.5193 113.727C37.8191 112.869 28.246 111.235 27.5555 111.555C26.865 111.875 16.5686 109.174 11.5067 107.784C6.73213 104.743 -3.83961 98.7154 -7.93009 98.9296C-12.0206 99.1438 -28.3491 86.678 -36.002 80.4184L-30.3722 109.327C-20.5823 133.624 -20.1084 201.133 -17.8594 201.772C-15.6103 202.411 17.337 169.985 23.6953 163.07C29.19 155.038 36.815 139.537 37.1866 138.525C37.6511 137.259 40.9733 127.05 41.194 124.496Z" fill="#FF261C"/>
<path d="M13.0464 154.347C15.2419 153.049 19.9359 147.069 22.0084 144.241C21.5657 143.886 20.8649 144.537 20.5698 144.908L16.0334 149.461L13.9754 151.815L8.44291 156.479C7.66102 157.309 6.41155 158.891 7.66873 158.589C9.24022 158.211 10.3021 155.968 13.0464 154.347Z" fill="white"/>
<path d="M-7.07209 108.643C-5.03635 110.242 2.72081 110.983 6.56227 111.571C6.89025 110.895 5.95617 110.521 5.44814 110.418L-1.00039 108.191L-4.27144 107.346L-14.6881 102.541C-15.8528 102.183 -18.0225 101.758 -17.3843 102.926C-16.5865 104.387 -9.61677 106.645 -7.07209 108.643Z" fill="white"/>
<path d="M3.85271 114.288C5.12653 114.964 9.45535 114.605 11.6208 114.548C11.7343 114.145 11.1851 114.032 10.8963 114.026L7.13962 113.44L5.26201 113.3L1.96649 112.813C1.29232 112.731 0.0601954 112.712 0.525017 113.29C1.10604 114.013 2.26043 113.443 3.85271 114.288Z" fill="white"/>
<path d="M18.64 107.879C20.9911 108.864 28.5766 109.048 32.0754 109.017C32.0933 108.449 31.1534 108.277 30.6812 108.262L24.3289 107.349L21.2168 107.107L14.1786 105.461C13.0483 105.33 11.0364 105.276 12.0312 106.104C13.2748 107.139 15.701 106.648 18.64 107.879Z" fill="#FF261C"/>
<path d="M27.022 101.296L36.9824 100.183L42.1614 97.784L35.1879 94.011L16.991 86.333C12.8577 80.894 4.27224 69.3232 2.99655 66.5525C1.40193 63.089 -10.4408 60.8716 -12.0574 58.1187C-13.3507 55.9163 -21.1112 55.8932 -22.6603 57.0778L-48.294 51.4446L-49 60.5264L-33.3012 80.2177L-1.7108 94.9977L27.022 101.296Z" fill="#FF261C"/>
<path d="M30.9135 85.4855C30.8784 86.6224 34.7221 90.7248 36.6483 92.6339L32.73 90.9473L29.7627 86.0187L28.8764 82.5772C29.57 83.073 30.9487 84.3486 30.9135 85.4855Z" fill="#FF261C"/>
<path d="M40.1058 109.242C40.7787 109.491 45.9048 108.19 48.3838 107.508L48.118 106.931C47.5499 106.96 45.9577 107.091 44.1338 107.376C42.31 107.661 40.6292 107.599 40.0168 107.532C38.6887 107.681 36.0857 108.093 36.2984 108.555C36.5641 109.132 39.2645 108.931 40.1058 109.242Z" fill="#FF261C"/>
<path d="M-12.5444 93.8353C-12.092 94.3934 -7.0215 95.8979 -4.54281 96.5804L-4.47781 95.9479C-4.98156 95.6828 -6.41742 94.9803 -8.13084 94.2917C-9.84425 93.6031 -11.2584 92.6898 -11.7514 92.3192C-12.969 91.7672 -15.4174 90.7895 -15.4694 91.2955C-15.5344 91.928 -13.1099 93.1376 -12.5444 93.8353Z" fill="#FF261C"/>
<path d="M-26.8202 63.2073C-25.3407 64.2329 -12.2372 66.3407 -5.37275 66.5778L-5.53265 65.1105C-6.99384 64.7758 -11.1308 63.9426 -15.9893 63.2876C-20.8477 62.6325 -25.038 61.3102 -26.5258 60.731C-30.0114 60.1233 -36.711 56.7513 -36.5831 57.9252C-36.4232 59.3925 -28.6696 61.9253 -26.8202 63.2073Z" fill="white"/>
<path d="M45.3984 142.689C45.8716 142.148 46.5052 136.882 46.7629 134.316L46.1303 134.358C45.9537 134.9 45.5026 136.437 45.1114 138.247C44.7202 140.056 44.0582 141.608 43.7761 142.157C43.4365 143.453 42.8837 146.038 43.3897 146.005C44.0222 145.964 44.8069 143.364 45.3984 142.689Z" fill="#FF261C"/>
<path d="M35.5659 111.685C36.0996 111.944 40.8541 111.554 43.1646 111.327L43.0571 110.871C42.5548 110.83 41.137 110.749 39.4839 110.756C37.8307 110.763 36.3771 110.53 35.8569 110.413C34.6658 110.375 32.3052 110.389 32.3911 110.754C32.4986 111.21 34.8987 111.362 35.5659 111.685Z" fill="#FF261C"/>
<path d="M21.3561 97.3171C22.3631 98.1079 26.2 98.4744 28.1002 98.7653C28.2624 98.4306 27.8003 98.2457 27.5491 98.195L24.3594 97.0931L22.7414 96.6753L17.589 94.2987C17.0129 94.1214 15.9397 93.9113 16.2554 94.4893C16.65 95.2118 20.0974 96.3287 21.3561 97.3171Z" fill="white"/>
<path d="M20.0438 79.3155L28.0364 86.8185C25.3063 86.4492 19.7133 85.4218 19.1818 84.2673L10.9429 66.3727L11.8049 61.4208L20.0438 79.3155Z" fill="#FFD62C"/>
<path d="M32.8043 130.662L38.5415 120.447L35.7435 121.003L30.4434 130.159L18.5532 140.299L16.4325 144.286L32.8043 130.662Z" fill="#FFD62C"/>
<path d="M3.07034 96.2842L10.7961 98.6581L13.9841 101.033L5.37328 99.7697C2.98986 98.8896 -0.643436 98.0749 -1.06867 97.1513C-1.4939 96.2277 -6.42598 94.6139 -8.46276 93.223L-13.4003 87.8064L-20.9735 75.9067C-19.4463 75.4326 -14.7696 82.5576 -13.5124 82.2553C-12.2552 81.953 -8.38346 86.0657 -6.60474 88.1599L3.07034 96.2842Z" fill="#FFD62C"/>
<path d="M-2.14633 122.864L2.59125 125.572L-5.02353 124.197L-11.7763 117.871C-12.0055 116.109 -12.3576 112.817 -11.9323 113.741C-11.5071 114.665 -5.23116 120.208 -2.14633 122.864Z" fill="#FFD62C"/>
<path d="M39.2667 164.883L39.304 147.65L37.9572 145.882C37.3149 147.308 35.7279 150.391 34.5191 151.318C33.0081 152.476 35.9395 154.23 33.687 157.556C31.8851 160.218 27.473 166.853 25.4922 169.838L16.6013 182.253L11.165 195.977C13.0515 194.264 27.2756 182.234 29.6344 179.466C31.9932 176.698 37.2207 170.051 39.2667 164.883Z" fill="#FF261C"/>
<path d="M31.1374 174.816C32.6239 174.029 35.5889 168.704 36.8856 166.139C36.5448 165.598 36.0861 166.119 35.8994 166.447L32.9523 170.2L31.6346 172.231L31.1374 174.816Z" fill="white"/>
<path d="M24.0443 78.7154L39.0599 87.0859L41.2543 86.7592C40.3212 85.5054 38.3992 82.6204 38.1758 81.1109C37.8966 79.2241 34.9478 80.9487 33.1355 77.3617C31.6857 74.4921 28.0316 67.4082 26.3858 64.225L19.8566 50.4126L10.5144 39C11.0956 41.4847 14.7084 59.7927 15.9819 63.2028C17.2554 66.6129 20.5249 74.4183 24.0443 78.7154Z" fill="#FF261C"/>
<path d="M19.3113 66.7725C19.2789 68.4583 22.4899 73.6379 24.0995 76.0169C24.7371 75.9799 24.5046 75.3251 24.3086 75.0024L22.46 70.5991L21.3259 68.4597L19.3113 66.7725Z" fill="white"/>
<path d="M-6.03091 208.63C-1.77991 206.791 7.49512 191.356 11.6013 183.869C10.7797 182.027 9.40903 183.465 8.82639 184.415L-0.0661969 194.932L-4.11701 200.739L-14.9105 210.379C-16.4458 212.351 -18.9141 216.427 -16.5054 216.954C-13.4946 217.614 -11.3447 210.929 -6.03091 208.63Z" fill="#FF261C"/>
<path d="M-15.3472 189.627L-20.4748 199.329C-20.8337 196.589 -21.3088 190.905 -20.3371 190.088L-5.27581 177.429L-0.285933 176.968L-15.3472 189.627Z" fill="#FFD62C"/>
<path fill-rule="evenodd" clip-rule="evenodd" d="M115.19 161.063C113.325 162.403 113.045 164.321 113.045 165.159C113.045 166.648 114.351 168.914 115.19 169.907L117.895 173.816L117.615 174.654L114.444 177.075H113.605C112.952 176.516 111.217 175.343 109.501 175.12C107.785 174.896 105.615 175.523 104.745 175.864C103.812 176.547 102.171 178.21 103.066 179.402C103.961 180.594 104.994 179.898 105.398 179.402C105.646 178.937 106.573 177.931 108.289 177.633C110.005 177.335 110.807 178.254 110.993 178.75C110.403 178.875 108.904 179.179 107.636 179.402C106.051 179.681 103.159 182.66 103.719 184.243C104.167 185.509 106.144 185.453 107.076 185.267L107.636 186.105C108.009 186.322 109.016 186.626 110.061 186.105C111.105 185.583 110.123 184.646 109.501 184.243C109.066 183.932 108.681 183.07 110.62 182.102C112.56 181.133 112.548 181.884 112.299 182.381C112.175 182.629 111.87 183.349 111.646 184.243C111.366 185.36 111.926 187.315 113.045 187.687C114.164 188.06 114.444 186.942 113.978 186.756C113.512 186.57 112.859 185.453 113.045 184.057C113.172 183.105 114.426 181.72 115.271 180.788C115.665 180.352 115.97 180.016 116.03 179.867C116.146 179.578 118.131 178.105 119.821 176.851L119.821 176.851C120.852 176.086 121.774 175.402 122.092 175.12C122.285 174.948 122.488 174.831 122.669 174.727C123.27 174.38 123.613 174.182 122.465 172.606C120.973 170.558 121.252 169.441 121.532 168.51C121.742 167.812 123.054 166.8 124.365 165.787C124.802 165.45 125.239 165.112 125.636 164.787C127.221 163.483 129.273 164.042 131.698 164.787C134.123 165.531 135.522 166.928 135.988 168.883C136.454 170.838 136.174 172.606 135.055 174.375C134.218 175.698 135.102 176.239 135.602 176.545C135.77 176.649 135.895 176.725 135.895 176.795C135.895 176.936 136.512 177.196 137.183 177.478C137.843 177.755 138.555 178.054 138.786 178.285C139.159 178.657 141.179 178.75 142.143 178.75C142.641 179.309 143.822 180.761 144.568 182.102C145.314 183.442 146.247 183.653 146.62 183.591C147.335 183.591 148.895 183.703 149.418 184.15C150.07 184.708 150.537 186.198 149.138 186.105C148.019 186.03 148.423 187.935 148.765 188.897C149.604 188.897 150.63 188.618 151.469 186.942C152.402 187.873 153.988 187.036 154.454 186.477C154.827 186.03 154.92 184.367 154.92 183.591C155.231 183.901 155.965 184.206 156.412 182.939C156.86 181.673 156.226 180.55 155.853 180.147C154.734 179.588 152.01 178.601 150.07 179.123C148.131 179.644 147.397 179.34 147.273 179.123L144.568 176.795C143.698 175.771 141.994 173.556 142.143 172.886C142.292 172.215 144.257 170.062 145.221 169.069C145.78 168.138 146.9 165.922 146.9 164.507C146.9 163.158 145.651 161.808 144.976 161.079C144.767 160.852 144.612 160.686 144.568 160.597C144.505 160.471 144.205 160.216 143.845 159.909C143.142 159.311 142.206 158.514 142.33 158.084C142.479 157.563 145.438 156.998 146.9 156.781C148.671 156.129 151.482 156.241 154.267 156.501C157.252 156.781 160.516 158.643 160.889 159.853C161.262 161.063 162.288 160.691 162.381 160.318C162.456 160.02 162.723 158.705 162.848 158.084C162.754 156.781 164.899 154.267 165.832 153.336C166.286 152.43 167.551 151.569 169.44 150.284H169.44C170.268 149.72 171.215 149.075 172.267 148.309C175.028 146.298 179.573 146.354 181.501 146.634C183.459 146.851 187.86 147.713 189.801 149.426C191.74 151.139 193.158 149.83 193.624 148.961L195.396 146.634L197.821 142.351L200.526 137.79L203.416 135.276L206.96 131.925L208.452 130.808L209.198 129.412L211.624 128.574L214.328 126.712L219.832 124.385C220.95 124.198 223.263 123.64 223.562 122.895C223.859 122.15 222.816 121.84 222.256 121.778L218.992 120.94L214.608 119.265L210.038 117.775L202.67 115.541L196.702 113.679L191.759 112.283C190.422 112.034 187.804 111.407 188.029 110.886C188.2 110.485 189.506 110.048 190.526 109.706C191.162 109.494 191.687 109.318 191.759 109.211C191.945 108.931 195.116 108.559 194.837 109.211C194.557 109.862 195.769 110.607 196.236 110.141C196.702 109.676 196.702 108.559 195.769 108C195.023 107.553 191.728 108.186 190.173 108.559C190.64 108 191.666 106.79 192.039 106.418C192.298 106.159 192.557 106.217 192.944 106.303C193.254 106.372 193.645 106.459 194.184 106.418C194.917 106.362 195.105 105.897 195.282 105.456C195.399 105.168 195.511 104.889 195.769 104.742C196.292 104.444 197.23 105.053 197.634 105.394C197.354 105.487 196.777 105.785 196.702 106.232C196.692 106.286 196.68 106.344 196.669 106.404V106.404V106.404V106.405C196.557 106.956 196.418 107.639 198.101 106.883C199.593 106.213 199.406 104.928 199.126 104.37C199.058 103.754 198.081 103.641 196.976 103.513C196.579 103.468 196.164 103.42 195.769 103.346C195.769 102.832 195.698 102.74 195.476 102.448C195.254 102.156 194.882 101.667 194.277 100.367C193.306 98.2816 191.323 99.4979 190.453 100.367C189.894 101.081 188.569 102.806 187.749 103.997C186.928 105.189 186.287 108.404 186.07 109.862L183.459 111.259L179.541 113.214L174.972 115.262L168.816 118.24L160.889 121.499L150.444 123.919C148.174 124.633 143.169 125.744 141.304 124.478C139.439 123.212 139.594 120.599 139.905 119.451L140.837 115.448L143.915 112.003L149.418 106.883H153.428L159.863 107.442C163.314 107.597 170.644 107.926 172.36 108C174.505 108.093 177.023 107.442 177.396 106.232C177.695 105.263 176.339 104.587 175.624 104.37C175.562 103.625 175.345 102.135 174.972 102.135C174.599 102.135 173.884 103.377 173.573 103.997C173.666 103.098 173.797 101.298 173.573 101.298C173.349 101.298 172.485 102.663 172.081 103.346L171.148 102.973C171.241 102.011 171.316 100.143 170.868 100.367C170.42 100.59 169.998 101.887 169.842 102.508L168.816 102.135C169.065 101.081 169.413 99.045 168.816 99.3428C168.219 99.6407 167.511 100.956 167.231 101.577L165.645 100.925C165.894 100.305 166.018 99.9014 165.645 99.3428C165.049 99.5662 164.713 100.491 164.62 100.925C161.666 100.398 156.785 98.6912 156.039 97.6671C156.263 96.3266 159.366 95.8052 160.889 95.7122C161.324 96.6742 162.251 98.4677 162.474 97.9464C162.698 97.4252 162.568 96.0535 162.474 95.4329C162.941 95.1536 163.948 94.7627 164.246 95.4329C164.545 96.1032 165.552 96.8293 166.018 97.1086L165.645 95.0606C166.05 94.8433 166.932 94.5392 167.231 95.0606C167.529 95.5818 168.412 96.457 168.816 96.8293C168.785 96.457 168.742 95.5818 168.816 95.0606C168.891 94.5392 169.531 94.8433 169.842 95.0606L170.215 96.457L171.148 96.8293L171.428 94.5951L172.36 95.0606L172.92 96.457L173.573 94.5951C174.132 94.409 175.195 94.111 174.972 94.409C174.748 94.7068 175.811 96.3328 176.371 97.1086L177.023 94.5951L179.169 95.7122L179.541 94.5951H180.195L180.101 96.457H181.221L182.153 96.0845V94.409H183.459C183.489 94.564 183.683 94.9116 184.205 95.0606C184.726 95.2095 185.417 94.44 185.697 94.0365C185.977 93.9745 186.928 93.6083 188.495 92.6402C190.061 91.672 188.65 90.5611 187.749 90.1267L184.205 89.1026C182.557 88.6683 178.983 87.725 177.863 87.4269C176.744 87.1291 172.049 86.4961 169.842 86.2168L163.221 85.5652C160.982 85.1617 156.245 84.3177 155.2 84.1688C154.155 84.0198 150.475 82.1208 148.765 81.1899L140.837 77.5592C138.692 76.349 134.197 73.5935 133.376 72.253C132.556 70.9125 131.667 70.6394 131.325 70.6704C130.952 70.7945 129.926 71.2104 128.807 71.8806C127.688 72.5509 127.594 74.0217 127.688 74.6734L128.62 78.5832L130.206 81.1899C131.138 82.4621 133.283 85.3977 134.402 86.9616C135.522 88.5255 136.734 90.0335 137.2 90.5921L138.413 89.6612C139.594 89.6302 140.464 89.6612 139.905 90.499C137.853 91.4299 136.454 95.0606 135.895 98.598C135.447 101.428 137.387 103.873 138.413 104.742L137.387 109.024L136.174 114.144C135.863 114.517 135.093 115.559 134.496 116.751C133.899 117.943 131.884 118.675 130.952 118.892C129.801 118.737 127.389 118.092 126.941 116.751C126.494 115.41 124.952 114.331 124.237 113.958L122.931 112.934L119.574 108.559L117.429 99.9014C118.019 98.7222 119.145 95.7681 118.921 93.3849C118.748 91.5465 117.972 89.9563 117.38 88.7455C117.014 87.9944 116.718 87.3892 116.683 86.9616C116.608 86.0679 117.646 84.7894 118.175 84.2618L120.599 80.9106L124.61 73.9286C125.138 72.253 125.654 68.4548 123.491 66.6675C121.327 64.8801 119.045 67.1019 118.175 68.4362C116.683 70.1119 113.12 73.6866 110.807 74.5803C107.916 75.6974 101.201 79.7004 100.175 80.6313C99.1491 81.5622 90.4757 84.0757 87.398 84.1688C84.9359 84.2432 78.7246 85.8134 75.9267 86.5891C73.6262 87.3339 68.4656 89.233 66.2274 90.8714C63.9891 92.5099 65.4191 93.3539 66.4139 93.5711H69.0252C69.1807 93.7882 69.6408 94.2786 70.2378 94.502C70.8346 94.7254 71.3568 93.9745 71.5434 93.5711H72.6625C72.7609 93.9639 72.8853 94.2532 73.0355 94.6028C73.1702 94.9159 73.3256 95.2775 73.5019 95.8052C73.9404 95.1244 74.3364 94.7146 74.6502 94.3898C74.9371 94.0931 75.1551 93.8675 75.2739 93.5711C75.1868 94.0273 75.3587 94.5291 75.4698 94.853C75.5173 94.9917 75.5537 95.0979 75.5537 95.1536C76.0759 94.8558 76.766 93.9745 77.0458 93.5711H78.165C78.0784 94.038 78.1462 94.2447 78.2556 94.5778C78.3423 94.8424 78.4555 95.187 78.538 95.8052C79.2096 95.5818 79.564 93.8504 79.6572 93.0126H81.2427L82.0821 95.1536L82.3619 93.0126H83.3877L83.8541 94.9675L85.0664 93.0126H85.999L86.2788 94.9675L87.6778 92.8263L89.3566 92.547L89.0768 94.502L90.4757 92.8263H92.4341L92.8073 95.5261L93.6467 92.8263C96.4444 92.8263 98.3098 92.8263 99.1491 95.1536C97.8827 95.3877 95.7198 96.3989 93.8708 97.2634C92.0431 98.1177 90.522 98.8289 90.4757 98.505C90.4011 97.9836 89.5119 97.4189 89.0768 97.2016L89.3566 99.1566C89.2235 99.2704 89.1215 99.3687 89.0338 99.4531V99.4533C88.6913 99.7833 88.5689 99.9014 87.6778 99.9014C87.9576 98.9704 85.0665 97.1086 85.8126 97.9464C86.4094 98.6166 86.3099 100.15 86.1856 100.832C85.8126 101.05 85.0664 101.428 85.0664 101.205C85.0664 100.925 83.1079 98.2257 83.8541 99.6221C84.4509 100.739 84.1028 101.577 83.8541 101.856C83.5121 102.26 82.8841 102.936 83.1079 102.415C83.3877 101.763 81.7089 98.9704 82.0821 99.9014C82.3805 100.646 82.2064 102.011 82.0821 102.601C81.0375 100.963 79.8127 99.9014 79.6572 100.181C79.9255 100.963 79.8376 101.732 79.7482 102.515C79.7029 102.911 79.6572 103.311 79.6572 103.718C78.4448 103.718 77.792 104.649 78.165 105.766C78.4634 106.66 80.9008 106.635 82.0821 106.511C87.0079 106.166 94.8164 105.181 104.172 104.002L106.424 103.718C112.765 107.349 116.962 113.307 116.962 113.958V115.913C117.112 116.175 117.368 116.257 117.608 116.333C117.965 116.446 118.286 116.549 118.175 117.217C119.816 123.919 112.455 124.974 108.569 124.664L96.4444 121.033L87.6778 117.31L80.2168 114.517L70.8906 109.862C71.2014 109.645 69.9263 105.487 69.0252 103.718C66.2274 98.2257 63.8959 98.8773 62.6834 99.6221C61.7135 100.218 61.1601 102.229 61.0047 103.16C60.3829 103.067 58.8782 103.104 57.8338 103.997C56.5281 105.115 59.699 107.163 60.4452 106.883C61.042 106.66 59.8233 105.487 59.1394 104.928C59.2949 104.121 60.4452 103.997 61.0047 104.37C61.8704 105.522 62.7361 105.64 63.6239 105.762C64.1707 105.836 64.726 105.912 65.2947 106.232C66.4885 106.902 66.9113 108 66.9735 108.466C65.0149 107.597 61.5642 106.697 60.4452 108.093C59.9228 109.881 61.2223 110.017 61.9373 109.862C61.6576 109.552 61.415 108.894 62.6834 108.745C64.2689 108.559 69.6782 109.955 68.7454 110.793C68.1857 111.296 66.6517 111.598 64.7082 111.98H64.708C63.4133 112.234 61.9366 112.525 60.4452 112.934C58.9855 113.335 55.9125 114.505 52.4439 115.826L52.4437 115.826C47.0475 117.881 40.6938 120.301 37.9688 120.754C34.3875 121.35 32.4974 122.305 32 122.709C48.1638 127.27 51.7338 132.138 61.8025 145.868C62.8301 147.269 63.9252 148.762 65.1083 150.357C67.645 147.08 74.8698 146.199 78.165 146.168C78.4929 146.255 78.9179 146.335 79.4196 146.429C83.1999 147.137 91.3295 148.659 94.9523 160.411C96.3698 156.539 104.807 155.943 108.848 156.129L111.18 157.153C113.294 157.898 117.056 159.722 115.19 161.063ZM103.626 89.1026C104.222 89.1026 104.496 88.7303 104.558 88.5441C104.247 88.0477 103.868 86.9802 104.838 86.6823C106.05 86.31 106.144 86.9616 106.05 87.7062C105.957 88.451 106.61 88.5441 107.263 88.0787C107.785 87.7062 107.48 86.4961 107.263 85.9375C107.107 85.6272 106.349 85.0066 104.558 85.0066C102.768 85.0066 102.507 86.8064 102.6 87.7062C102.693 88.1717 103.029 89.1026 103.626 89.1026ZM103.253 91.4299C103.327 90.0149 109.252 90.406 112.206 90.7783L111.646 89.7544C107.885 89.3199 100.548 88.9723 101.294 91.0576C102.04 93.1429 107.201 93.9745 109.688 94.1297V93.3849C107.512 93.3229 103.178 92.8451 103.253 91.4299ZM148.112 90.406C148.33 90.8405 148.634 91.7279 148.112 91.8024C147.459 91.8956 146.433 91.8956 146.62 90.6853C146.806 89.4751 147.179 88.5442 147.832 88.4512C148.485 88.358 150.443 88.2649 150.63 88.7305C150.679 88.8514 150.771 89.0166 150.878 89.2078C151.184 89.7518 151.607 90.5066 151.469 91.0577C151.446 91.1528 151.425 91.245 151.405 91.3331C151.269 91.9345 151.176 92.3491 150.443 92.2679C149.772 92.1934 149.729 91.4301 149.791 91.0577C149.729 90.7473 149.474 90.1081 148.951 90.0337C148.429 89.9592 148.174 90.2509 148.112 90.406ZM143.729 94.3159C144.412 93.9436 146.321 93.3106 148.485 93.7574C148.951 94.5022 147.459 95.433 145.594 95.9916C145.345 96.1467 144.96 96.5129 145.407 96.7363C145.855 96.9597 147.646 95.9606 148.485 95.433C149.573 95.0606 151.824 94.26 152.122 94.0366C152.495 93.7574 151.842 92.6402 149.604 92.7333C148.889 92.7631 148.155 92.7738 147.475 92.7838C146.026 92.805 144.822 92.8225 144.568 93.0126C144.482 93.0768 144.347 93.141 144.2 93.2108V93.2109C143.708 93.4449 143.082 93.7424 143.729 94.3159ZM192.225 101.856C190.211 102.899 189.396 105.828 189.241 107.163C189.39 106.641 191.977 104.587 193.251 103.625C193.749 102.601 193.997 101.67 192.225 101.856ZM149.138 181.729C149.014 181.14 149.324 180.072 151.563 180.519C153.801 180.966 154.174 182.071 154.081 182.567C153.863 182.381 153.13 181.953 151.936 181.729C150.742 181.506 149.573 181.636 149.138 181.729ZM107.636 180.985C108.48 180.448 110.185 179.867 111.18 179.867C110.465 180.147 108.83 181.04 108.009 182.381C107.188 183.721 106.299 183.746 105.957 183.591C105.584 182.94 106.61 181.636 107.636 180.985ZM67.813 106.883C67.5953 105.704 66.9176 103.16 65.9477 102.415C64.9778 101.67 64.3623 101.546 64.1757 101.577L63.8959 102.135V103.439C64.8597 103.997 66.9922 105.468 67.813 106.883Z" fill="black"/>
<path d="M226.319 222.609H222.609V226.319H226.319V222.609Z" fill="black"/>
<path d="M230.029 222.609H226.319V226.319H230.029V222.609Z" fill="black"/>
<path d="M233.739 222.609H230.029V226.319H233.739V222.609Z" fill="black"/>
<path d="M237.449 222.609H233.739V226.319H237.449V222.609Z" fill="black"/>
<path d="M241.159 222.609H237.449V226.319H241.159V222.609Z" fill="black"/>
<path d="M226.319 226.319H222.609V230.029H226.319V226.319Z" fill="black"/>
<path d="M241.159 226.319H237.449V230.029H241.159V226.319Z" fill="black"/>
<path d="M226.319 230.029H222.609V233.739H226.319V230.029Z" fill="black"/>
<path d="M241.159 230.029H237.449V233.739H241.159V230.029Z" fill="black"/>
<path d="M226.319 233.739H222.609V237.449H226.319V233.739Z" fill="black"/>
<path d="M241.159 233.739H237.449V237.449H241.159V233.739Z" fill="black"/>
<path d="M226.319 237.449H222.609V241.159H226.319V237.449Z" fill="black"/>
<path d="M230.029 237.449H226.319V241.159H230.029V237.449Z" fill="black"/>
<path d="M233.739 237.449H230.029V241.159H233.739V237.449Z" fill="black"/>
<path d="M237.449 237.449H233.739V241.159H237.449V237.449Z" fill="black"/>
<path d="M241.159 237.449H237.449V241.159H241.159V237.449Z" fill="black"/>
<path d="M3.71014 0H0V3.71014H3.71014V0Z" fill="black"/>
<path d="M7.42029 0H3.71014V3.71014H7.42029V0Z" fill="black"/>
<path d="M11.1304 0H7.42029V3.71014H11.1304V0Z" fill="black"/>
<path d="M14.8406 0H11.1304V3.71014H14.8406V0Z" fill="black"/>
<path d="M18.5507 0H14.8406V3.71014H18.5507V0Z" fill="black"/>
<path d="M22.2609 0H18.5507V3.71014H22.2609V0Z" fill="black"/>
<path d="M25.971 0H22.2609V3.71014H25.971V0Z" fill="black"/>
<path d="M3.71014 3.71014H0V7.42029H3.71014V3.71014Z" fill="black"/>
<path d="M25.971 3.71014H22.2609L22.2609 7.42029H25.971V3.71014Z" fill="black"/>
<path d="M3.71014 7.42029H0V11.1304H3.71014V7.42029Z" fill="black"/>
<path d="M11.1304 7.42029H7.42029V11.1304H11.1304V7.42029Z" fill="black"/>
<path d="M14.8406 7.42029H11.1304V11.1304H14.8406V7.42029Z" fill="black"/>
<path d="M18.5507 7.42029H14.8406V11.1304H18.5507V7.42029Z" fill="black"/>
<path d="M25.971 7.42029H22.2609V11.1304H25.971V7.42029Z" fill="black"/>
<path d="M3.71014 11.1304H0V14.8406H3.71014V11.1304Z" fill="black"/>
<path d="M11.1304 11.1304H7.42029V14.8406H11.1304V11.1304Z" fill="black"/>
<path d="M14.8406 11.1304H11.1304V14.8406H14.8406V11.1304Z" fill="black"/>
<path d="M18.5507 11.1304H14.8406V14.8406H18.5507V11.1304Z" fill="black"/>
<path d="M25.971 11.1304H22.2609V14.8406H25.971V11.1304Z" fill="black"/>
<path d="M3.71014 14.8406H0V18.5507H3.71014V14.8406Z" fill="black"/>
<path d="M11.1304 14.8406H7.42029V18.5507H11.1304V14.8406Z" fill="black"/>
<path d="M14.8406 14.8406H11.1304V18.5507H14.8406V14.8406Z" fill="black"/>
<path d="M18.5507 14.8406H14.8406V18.5507H18.5507V14.8406Z" fill="black"/>
<path d="M25.971 14.8406H22.2609V18.5507H25.971V14.8406Z" fill="black"/>
<path d="M3.71014 18.5507H0V22.2609H3.71014V18.5507Z" fill="black"/>
<path d="M25.971 18.5507H22.2609V22.2609H25.971V18.5507Z" fill="black"/>
<path d="M3.71014 22.2609H0V25.971H3.71014V22.2609Z" fill="black"/>
<path d="M7.42029 22.2609L3.71014 22.2609V25.971H7.42029V22.2609Z" fill="black"/>
<path d="M11.1304 22.2609H7.42029V25.971H11.1304V22.2609Z" fill="black"/>
<path d="M14.8406 22.2609H11.1304V25.971H14.8406V22.2609Z" fill="black"/>
<path d="M18.5507 22.2609H14.8406V25.971H18.5507V22.2609Z" fill="black"/>
<path d="M22.2609 22.2609L18.5507 22.2609V25.971H22.2609L22.2609 22.2609Z" fill="black"/>
<path d="M25.971 22.2609H22.2609L22.2609 25.971H25.971V22.2609Z" fill="black"/>
<path d="M233.71 0H230V3.71014H233.71V0Z" fill="black"/>
<path d="M237.42 0H233.71V3.71014H237.42V0Z" fill="black"/>
<path d="M241.13 0H237.42V3.71014H241.13V0Z" fill="black"/>
<path d="M244.841 0H241.13V3.71014H244.841V0Z" fill="black"/>
<path d="M248.551 0H244.841V3.71014H248.551V0Z" fill="black"/>
<path d="M252.261 0H248.551V3.71014H252.261V0Z" fill="black"/>
<path d="M255.971 0H252.261V3.71014H255.971V0Z" fill="black"/>
<path d="M233.71 3.71014H230V7.42029H233.71V3.71014Z" fill="black"/>
<path d="M255.971 3.71014H252.261L252.261 7.42029H255.971V3.71014Z" fill="black"/>
<path d="M233.71 7.42029H230V11.1304H233.71V7.42029Z" fill="black"/>
<path d="M241.13 7.42029H237.42V11.1304H241.13V7.42029Z" fill="black"/>
<path d="M244.841 7.42029H241.13V11.1304H244.841V7.42029Z" fill="black"/>
<path d="M248.551 7.42029H244.841V11.1304H248.551V7.42029Z" fill="black"/>
<path d="M255.971 7.42029H252.261V11.1304H255.971V7.42029Z" fill="black"/>
<path d="M233.71 11.1304H230V14.8406H233.71V11.1304Z" fill="black"/>
<path d="M241.13 11.1304H237.42V14.8406H241.13V11.1304Z" fill="black"/>
<path d="M244.841 11.1304H241.13V14.8406H244.841V11.1304Z" fill="black"/>
<path d="M248.551 11.1304H244.841V14.8406H248.551V11.1304Z" fill="black"/>
<path d="M255.971 11.1304H252.261V14.8406H255.971V11.1304Z" fill="black"/>
<path d="M233.71 14.8406H230V18.5507H233.71V14.8406Z" fill="black"/>
<path d="M241.13 14.8406H237.42V18.5507H241.13V14.8406Z" fill="black"/>
<path d="M244.841 14.8406H241.13V18.5507H244.841V14.8406Z" fill="black"/>
<path d="M248.551 14.8406H244.841V18.5507H248.551V14.8406Z" fill="black"/>
<path d="M255.971 14.8406H252.261V18.5507H255.971V14.8406Z" fill="black"/>
<path d="M233.71 18.5507H230V22.2609H233.71V18.5507Z" fill="black"/>
<path d="M255.971 18.5507H252.261V22.2609H255.971V18.5507Z" fill="black"/>
<path d="M233.71 22.2609H230V25.971H233.71V22.2609Z" fill="black"/>
<path d="M237.42 22.2609L233.71 22.2609V25.971H237.42V22.2609Z" fill="black"/>
<path d="M241.13 22.2609H237.42V25.971H241.13V22.2609Z" fill="black"/>
<path d="M244.841 22.2609H241.13V25.971H244.841V22.2609Z" fill="black"/>
<path d="M248.551 22.2609H244.841V25.971H248.551V22.2609Z" fill="black"/>
<path d="M252.261 22.2609L248.551 22.2609V25.971H252.261L252.261 22.2609Z" fill="black"/>
<path d="M255.971 22.2609H252.261L252.261 25.971H255.971V22.2609Z" fill="black"/>
<path d="M3.71014 230H0V233.71H3.71014V230Z" fill="black"/>
<path d="M7.42029 230H3.71014V233.71H7.42029V230Z" fill="black"/>
<path d="M11.1304 230H7.42029V233.71H11.1304V230Z" fill="black"/>
<path d="M14.8406 230H11.1304V233.71H14.8406V230Z" fill="black"/>
<path d="M18.5507 230H14.8406V233.71H18.5507V230Z" fill="black"/>
<path d="M22.2609 230H18.5507V233.71H22.2609V230Z" fill="black"/>
<path d="M25.971 230H22.2609V233.71H25.971V230Z" fill="black"/>
<path d="M3.71014 233.71H0V237.42H3.71014V233.71Z" fill="black"/>
<path d="M25.971 233.71H22.2609L22.2609 237.42H25.971V233.71Z" fill="black"/>
<path d="M3.71014 237.42H0V241.13H3.71014V237.42Z" fill="black"/>
<path d="M11.1304 237.42H7.42029V241.13H11.1304V237.42Z" fill="black"/>
<path d="M14.8406 237.42H11.1304V241.13H14.8406V237.42Z" fill="black"/>
<path d="M18.5507 237.42H14.8406V241.13H18.5507V237.42Z" fill="black"/>
<path d="M25.971 237.42H22.2609V241.13H25.971V237.42Z" fill="black"/>
<path d="M3.71014 241.13H0V244.841H3.71014V241.13Z" fill="black"/>
<path d="M11.1304 241.13H7.42029V244.841H11.1304V241.13Z" fill="black"/>
<path d="M14.8406 241.13H11.1304V244.841H14.8406V241.13Z" fill="black"/>
<path d="M18.5507 241.13H14.8406V244.841H18.5507V241.13Z" fill="black"/>
<path d="M25.971 241.13H22.2609V244.841H25.971V241.13Z" fill="black"/>
<path d="M3.71014 244.841H0V248.551H3.71014V244.841Z" fill="black"/>
<path d="M11.1304 244.841H7.42029V248.551H11.1304V244.841Z" fill="black"/>
<path d="M14.8406 244.841H11.1304V248.551H14.8406V244.841Z" fill="black"/>
<path d="M18.5507 244.841H14.8406V248.551H18.5507V244.841Z" fill="black"/>
<path d="M25.971 244.841H22.2609V248.551H25.971V244.841Z" fill="black"/>
<path d="M3.71014 248.551H0V252.261H3.71014V248.551Z" fill="black"/>
<path d="M25.971 248.551H22.2609V252.261H25.971V248.551Z" fill="black"/>
<path d="M3.71014 252.261H0V255.971H3.71014V252.261Z" fill="black"/>
<path d="M7.42029 252.261L3.71014 252.261V255.971H7.42029V252.261Z" fill="black"/>
<path d="M11.1304 252.261H7.42029V255.971H11.1304V252.261Z" fill="black"/>
<path d="M14.8406 252.261H11.1304V255.971H14.8406V252.261Z" fill="black"/>
<path d="M18.5507 252.261H14.8406V255.971H18.5507V252.261Z" fill="black"/>
<path d="M22.2609 252.261L18.5507 252.261V255.971H22.2609L22.2609 252.261Z" fill="black"/>
<path d="M25.971 252.261H22.2609L22.2609 255.971H25.971V252.261Z" fill="black"/>
</g>
<defs>
<clipPath id="clip0_1_9">
<rect width="256" height="256" fill="white"/>
</clipPath>
</defs>
</svg>
