<svg width="246" height="240" viewBox="0 0 246 240" fill="none" xmlns="http://www.w3.org/2000/svg"><g clip-path="url(#clip0_3_146)"><path d="M229.924 206.685l-10.013-4.758c-2.002-1.36-4.005-2.04-6.008-4.08 18.691-21.756 28.703-49.632 28.036-78.187C241.939 53.711 189.206 0 124.457 0c-14.685 0-28.703 2.72-42.053 8.159v21.756c13.35-6.119 27.368-9.518 42.053-9.518 54.068 0 98.124 44.872 98.124 99.943 0 23.116-8.01 46.232-22.695 63.909-1.336-2.039-2.67-4.079-4.006-6.799l-4.672-10.198c-1.335-2.719-4.673-4.079-7.343-3.4-2.002.681-3.337 2.72-3.337 4.76v42.833c0 3.399 2.67 5.439 5.34 5.439h42.053c3.338 0 5.34-2.719 5.34-6.119 0-1.36-1.335-2.72-3.337-4.08z" fill="#8A8A8D"/><path d="M124.344 40.385c-15.353 0-29.371 4.08-42.054 12.238V70.3c0 10.879-8.677 19.717-18.69 19.717-4.005 0-7.343-1.36-10.68-3.4-18.023 40.114-.668 87.706 38.716 106.063 10.012 4.759 21.36 7.479 32.708 7.479 14.685 0 29.37-4.08 42.053-12.918v-17.677c0-10.879 8.677-19.717 18.69-19.717 4.005 0 7.342 1.36 10.68 3.399 4.673-10.198 6.675-21.756 6.675-32.634 0-44.872-34.71-80.227-78.098-80.227z" fill="url(#paint0_radial_3_146)"/><path d="M124.457 220.283c-54.068-.68-98.124-44.872-98.124-100.623 0-2.04 0-4.079.668-6.799v-1.36c0-1.359.667-3.399.667-4.759v-1.36c2.003-12.918 6.675-25.835 13.35-37.393 2.003-4.08 5.34-8.159 8.678-11.558 1.335 2.04 2.67 4.079 4.005 6.798l4.672 10.199c1.336 2.72 4.673 4.08 7.343 2.72 2.003-.68 3.338-2.72 3.338-5.44V27.875c0-3.4-2.67-5.439-6.008-5.439H20.993c-3.338-.68-5.34 2.04-6.008 4.76 0 2.04 1.335 4.079 3.338 5.439l10.012 4.759c2.003 1.36 4.673 2.72 6.676 4.08-6.676 8.158-12.683 16.316-16.688 25.835-2.67 4.76-4.673 10.198-6.008 15.637-.667.68-.667 1.36-.667 2.04-.668 2.04-1.335 4.08-2.003 6.799 0 .68-.667 1.36-.667 1.36-.668 2.72-1.335 5.439-1.335 7.478 0 .68 0 1.36-.668 2.04-.667 2.04-.667 4.079-.667 6.119 0 .679 0 1.36-.668 2.039 0 2.72.668 6.12.668 8.839 0 65.949 52.733 119.66 117.482 120.34 14.685 0 28.702-2.72 42.052-8.159v-21.756c-12.014 6.119-26.7 9.518-41.385 10.198z" fill="#00609C"/></g><defs><radialGradient id="paint0_radial_3_146" cx="0" cy="0" r="1" gradientUnits="userSpaceOnUse" gradientTransform="matrix(107.529 0 0 109.523 112.676 93.13)"><stop stop-color="#fff"/><stop offset=".139" stop-color="#C9DEEA"/><stop offset=".338" stop-color="#83B2CF"/><stop offset=".517" stop-color="#4A8FBA"/><stop offset=".67" stop-color="#2276AA"/><stop offset=".791" stop-color="#0967A1"/><stop offset=".864" stop-color="#00619D"/><stop offset=".967" stop-color="#00609C"/></radialGradient><clipPath id="clip0_3_146"><path fill="#fff" d="M0 0h246v240H0z"/></clipPath></defs></svg>