<svg width="125" height="125" viewBox="0 0 125 125" fill="none" xmlns="http://www.w3.org/2000/svg">
<path d="M62.2 124.4C96.5521 124.4 124.4 96.5521 124.4 62.2C124.4 27.8479 96.5521 0 62.2 0C27.8479 0 0 27.8479 0 62.2C0 96.5521 27.8479 124.4 62.2 124.4Z" fill="#26A17B"/>
<path d="M68.83 67.94V67.93C68.4 67.96 66.18 68.09 61.24 68.09C57.29 68.09 54.52 67.98 53.54 67.93V67.94C38.35 67.27 27.02 64.63 27.02 61.46C27.02 58.3 38.36 55.65 53.54 54.98V65.31C54.53 65.38 57.38 65.55 61.31 65.55C66.03 65.55 68.39 65.35 68.83 65.31V54.99C83.99 55.67 95.29 58.31 95.29 61.47C95.29 64.63 83.98 67.27 68.83 67.95V67.94ZM68.83 53.92V44.68H89.98V30.59H32.4V44.68H53.55V53.92C36.36 54.71 23.44 58.11 23.44 62.19C23.44 66.27 36.37 69.67 53.55 70.47V100.09H68.84V70.47C86 69.68 98.9 66.28 98.9 62.2C98.9 58.13 86 54.72 68.84 53.93" fill="white"/>
</svg>
